# xmcd
#
# Track frame offsets:
#	150
#	3014
#	3905
#	14593
#	29082
#	50083
#	61516
#	79861
#	93408
#	104891
#	118756
#	123874
#	136678
#	153785
#	169562
#	188372
#	189988
#
# Disc length: 2984 seconds
#
# Revision: 7
# Processed by: cddbd v1.5.2PL0 Copyright (c) Steve Scherf et al.
# Submitted via: EasyCDDAExtractor 11.1.0.1
#
DISCID=c80ba611
DTITLE=Various Artist - Black Snake Moan
DYEAR=2007
DGENRE=Blues
TTITLE0=Scott Bomar - Opening Theme
TTITLE1=Son House - Ain't But One Kind Of Blues
TTITLE2=Samuel L Jackson - Just Like A Bird Without A Feather
TTITLE3=The Black Keys - When The Lights Go Out
TTITLE4=Jessie Mae Hemphill - Standing In My Doorway Crying
TTITLE5=Bobby Rush - Chicken Heads
TTITLE6=Samuel L Jackson - Black Snake Moan
TTITLE7=Precious Bryant - Morning Train
TTITLE8=John Doe - The Losing Kind
TTITLE9=Outrageous Cherry - Lord Have Mercy On Me
TTITLE10=Scott Bomar - Ronnie And Rae's Theme
TTITLE11=Scott Bomar - The Chain
TTITLE12=Samuel L Jackson - Alice Mae
TTITLE13=Samuel L Jackson - Stackolee
TTITLE14=RL Burnside - Old Black Mattie
TTITLE15=Son House - That's Where The Blues Started
TTITLE16=North Mississippi Allstars - Mean Ol' Wind Died Down
EXTD=a Craig Bower file
EXTT0=
EXTT1=
EXTT2=
EXTT3=
EXTT4=
EXTT5=
EXTT6=
EXTT7=
EXTT8=
EXTT9=
EXTT10=
EXTT11=
EXTT12=
EXTT13=
EXTT14=
EXTT15=
EXTT16=
PLAYORDER=
